<svg xmlns="http://www.w3.org/2000/svg" xmlns:xlink="http://www.w3.org/1999/xlink" id="Layer_2" data-name="Layer 2" viewBox="0 0 2274.02 665.29"><defs><style>      .cls-1 {        fill: url(#linear-gradient-2);      }      .cls-2 {        fill: url(#linear-gradient-4);      }      .cls-3 {        fill: url(#linear-gradient-3);      }      .cls-4 {        fill: url(#linear-gradient);      }    </style><linearGradient id="linear-gradient" x1="249.69" y1="635.28" x2="332.5" y2="151.55" gradientUnits="userSpaceOnUse"><stop offset="0" stop-color="#0041bf"></stop><stop offset=".17" stop-color="#0c60d1"></stop><stop offset=".5" stop-color="#2095f2"></stop><stop offset=".66" stop-color="#29abff"></stop><stop offset=".77" stop-color="#3fbdff"></stop><stop offset=".95" stop-color="#6fe5ff"></stop></linearGradient><linearGradient id="linear-gradient-2" x1="379.86" y1="387.22" x2="251.87" y2="259.24" gradientUnits="userSpaceOnUse"><stop offset="0" stop-color="#0041bf"></stop><stop offset=".49" stop-color="#29abff"></stop><stop offset="1" stop-color="#6fe5ff"></stop></linearGradient><linearGradient id="linear-gradient-3" x1="264.27" y1="434.67" x2="473.66" y2="71.99" gradientUnits="userSpaceOnUse"><stop offset="0" stop-color="#002396"></stop><stop offset=".93" stop-color="#0b7ccd"></stop></linearGradient><linearGradient id="linear-gradient-4" x1="88.96" y1="146" x2="161.21" y2="20.87" gradientUnits="userSpaceOnUse"><stop offset=".26" stop-color="#0d63d4"></stop><stop offset="1" stop-color="#6fe5ff"></stop></linearGradient></defs><g id="Layer_1-2" data-name="Layer 1"><g><g><path class="cls-4" d="M543.25,313.99c74.27,100.51,42.84,243.18-64.61,307-47.37,28.14-102.64,44.3-161.63,44.3-19.84,0-39.3-1.85-58.22-5.39,10.05-.49,20.08-1.44,30.07-2.94,97.15-13.19,178.45-81.11,211.97-172.23,16.76-43.87,22.64-91.85,14.86-137.21.69,68.47-22.7,134.43-64.66,187.19-68.37,89.1-187.38,113.84-292.95,87.7C80.42,577.36,23,500.29,5.28,408.17l.26-.06c-1.01-4.45-1.85-9-2.56-13.6-.12-.83-.24-1.67-.36-2.5-4.33-30.75-2.38-63.07-.61-81.15,65.76,4.97,129.59,34.31,174.36,82.93,8.41,9.06,17.07,19.26,26.25,28.2,9.9,9.92,21.87,18.67,34.72,24.58,52.51,24.53,118.42,9.43,155.34-35.11,38.25-44.1,41.88-111.52,8.52-159.48-8.15-12.1-18.37-22.7-30-31.42,65.89,3.17,128.94,36.85,168.94,89.34,1.05,1.35,2.08,2.72,3.1,4.09Z"></path><path class="cls-1" d="M294.52,426.33c73.95-47.76,69.58-156.53-3.96-205.77,10.48,1.61,18.41,2.83,18.41,2.83,26.67,4.48,57.53,20.27,73.85,44.43,45.35,66.87-2.11,157.23-82.74,158.55-1.86.04-3.71.02-5.56-.05Z"></path><path class="cls-3" d="M634.45,351.69c-.45,37.51-7.4,73.42-19.87,106.73v.08c-.04.08-.08.12-.08.21.12-2.63.33-5.26.37-7.9,1.36-53.67-14.64-107.72-45.53-151.73-39.03-56.92-102-96.45-170.15-107.18-8.51-1.4-18.18-2.34-26.82-2.92-23.94-1.4-48.04.7-71.48,6.05l-68.65,19.66s0,0,0,0c23.58,3.58,45.39,15.08,61.09,33.02,33.04,37.76,41.19,94.85,7.35,137.05-13.49,16.62-32.25,29.9-52.36,34.22,0,0-.16-.66,0,0-9.34-4.48-18.02-10.45-25.46-17.97-8.97-8.55-16.78-17.52-25.62-26.82-23.94-25.46-53.92-46.6-86.87-61.94-32.94-15.34-68.85-24.8-104.68-26.86v-.04c0-.12.45-2.59,1.52-6.95,10.41-46.89,31.05-89.62,59.43-125.9,5.8-7.73,12.09-15.46,18.92-23.03,8.84,9.71,15.96,22.21,22.99,40.6l16.53,43.15,16.49-43.15c14.77-38.54,30.15-53.96,68.73-68.73l43.19-16.49-43.19-16.53c-9.54-3.62-17.4-7.28-24.14-11.15,19.82-8.56,41.79-15.51,66.01-20.15,22.04-4.57,44.87-6.87,68.23-6.62.53,0,1.03,0,1.56-.04.04.04.04.08.04.08,2.02.04,3.99.04,5.96.12,171.55,5.84,308.51,149.55,306.46,321.14Z"></path><path class="cls-2" d="M203.99,83.44c-43.02,17.39-62.43,37.92-78.93,83.4-7.53-20.87-15.71-36.53-26.53-49-.21-.26-.45-.48-.66-.74-5.47-6.17-11.6-11.57-18.63-16.48-9.25-6.39-20.07-11.96-33.07-17.18C89.2,66.01,108.61,45.48,125.06,0c6.95,19.13,14.4,33.87,23.94,45.79,5.39,6.74,11.39,12.61,18.38,17.87.41.35.86.65,1.32,1,9.75,7.09,21.26,13.09,35.29,18.78Z"></path></g><g><g><path d="M841.94,427.21v183.71h-22.79v-183.71h22.79Z"></path><path d="M1017.99,610.92h-22.79l-91.66-146.28v146.28h-22.79v-183.98h22.79l91.66,146.02v-146.02h22.79v183.98Z"></path><path d="M1194.04,610.92h-22.79l-91.66-146.28v146.28h-22.79v-183.98h22.79l91.66,146.02v-146.02h22.79v183.98Z"></path><path d="M1311.99,612.77c-16.19,0-30.97-3.99-44.32-11.99-13.36-7.99-23.92-19.15-31.68-33.47-7.76-14.32-11.65-30.44-11.65-48.36s3.88-34.05,11.65-48.37c7.76-14.32,18.32-25.48,31.68-33.47,13.36-7.99,28.13-11.99,44.32-11.99s31.22,4,44.58,11.99c13.36,8,23.87,19.11,31.56,33.34,7.68,14.23,11.52,30.4,11.52,48.5s-3.84,34.26-11.52,48.5c-7.68,14.23-18.2,25.35-31.56,33.34-13.36,8-28.22,11.99-44.58,11.99ZM1311.99,591.94c12.19,0,23.17-2.98,32.93-8.96,9.77-5.97,17.44-14.5,23.04-25.57,5.59-11.07,8.39-23.89,8.39-38.48s-2.8-27.63-8.39-38.62c-5.6-10.98-13.23-19.46-22.91-25.43-9.69-5.97-20.7-8.96-33.06-8.96s-23.37,2.99-33.06,8.96c-9.69,5.98-17.32,14.46-22.91,25.43-5.6,10.99-8.39,23.85-8.39,38.62s2.79,27.41,8.39,38.48c5.59,11.07,13.27,19.6,23.04,25.57,9.77,5.98,20.74,8.96,32.93,8.96Z"></path><path d="M1573.94,427.21l-65.87,183.71h-26.29l-65.86-183.71h24.29l54.84,158.41,54.85-158.41h24.04Z"></path><path d="M1669.61,570.07h-76.13l-14.02,40.85h-24.04l63.11-182.66h26.3l62.86,182.66h-24.04l-14.02-40.85ZM1663.09,550.56l-31.55-92.78-31.56,92.78h63.11Z"></path><path d="M1842.66,427.21v19.5h-47.58v164.21h-22.79v-164.21h-47.83v-19.5h118.2Z"></path><path d="M1893.49,427.21v183.71h-22.79v-183.71h22.79Z"></path><path d="M2011.44,612.77c-16.19,0-30.97-3.99-44.32-11.99-13.36-7.99-23.92-19.15-31.68-33.47-7.76-14.32-11.65-30.44-11.65-48.36s3.88-34.05,11.65-48.37c7.76-14.32,18.32-25.48,31.68-33.47,13.36-7.99,28.13-11.99,44.32-11.99s31.22,4,44.58,11.99c13.36,8,23.87,19.11,31.55,33.34,7.68,14.23,11.52,30.4,11.52,48.5s-3.84,34.26-11.52,48.5c-7.68,14.23-18.2,25.35-31.55,33.34-13.36,8-28.22,11.99-44.58,11.99ZM2011.44,591.94c12.19,0,23.16-2.98,32.93-8.96,9.77-5.97,17.44-14.5,23.04-25.57,5.59-11.07,8.39-23.89,8.39-38.48s-2.8-27.63-8.39-38.62c-5.59-10.98-13.23-19.46-22.91-25.43-9.69-5.97-20.7-8.96-33.06-8.96s-23.37,2.99-33.06,8.96c-9.69,5.98-17.32,14.46-22.91,25.43-5.6,10.99-8.39,23.85-8.39,38.62s2.8,27.41,8.39,38.48c5.59,11.07,13.27,19.6,23.04,25.57,9.77,5.98,20.74,8.96,32.93,8.96Z"></path><path d="M2266.37,610.92h-22.79l-91.66-146.28v146.28h-22.79v-183.98h22.79l91.66,146.02v-146.02h22.79v183.98Z"></path></g><g><path d="M927.52,117.24v40.16h-62.8v207.89h-47.27v-207.89h-62.8v-40.16h172.87Z"></path><path d="M1048.39,367.77c-16.44,0-31.23-2.96-44.4-8.89-13.17-5.92-23.58-14.45-31.23-25.58-7.66-11.13-11.6-24.28-11.82-39.45h50.65c.68,10.19,4.1,18.25,10.3,24.16,6.19,5.92,14.69,8.88,25.49,8.88s19.69-2.78,26-8.35c6.3-5.57,9.45-12.85,9.45-21.86,0-7.34-2.14-13.38-6.42-18.12-4.28-4.74-9.62-8.47-16.04-11.2-6.42-2.72-15.25-5.74-26.5-9.06-15.31-4.74-27.75-9.42-37.31-14.04-9.57-4.62-17.79-11.6-24.65-20.97-6.87-9.36-10.3-21.86-10.3-37.49,0-14.69,3.49-27.48,10.47-38.38,6.97-10.9,16.77-19.25,29.37-25.05,12.6-5.8,27.01-8.71,43.22-8.71,24.31,0,44.06,6.22,59.26,18.66,15.19,12.44,23.58,29.8,25.15,52.06h-52c-.45-8.53-3.88-15.58-10.3-21.15-6.41-5.56-14.91-8.35-25.49-8.35-9.23,0-16.6,2.49-22.12,7.46-5.52,4.97-8.27,12.21-8.27,21.68,0,6.64,2.08,12.14,6.24,16.53,4.16,4.38,9.34,7.94,15.53,10.66,6.19,2.73,14.91,5.86,26.17,9.42,15.3,4.74,27.8,9.48,37.48,14.21,9.67,4.74,18,11.85,24.99,21.32,6.97,9.48,10.47,21.92,10.47,37.31,0,13.27-3.27,25.59-9.79,36.96-6.53,11.37-16.1,20.44-28.7,27.19-12.61,6.75-27.57,10.13-44.9,10.13Z"></path><path d="M1224.3,117.24v153.52c0,16.82,4.17,29.67,12.49,38.56s20.03,13.33,35.12,13.33,27.12-4.44,35.45-13.33c8.33-8.88,12.49-21.73,12.49-38.56V117.24h47.61v153.16c0,21.09-4.34,38.91-13,53.48-8.67,14.57-20.26,25.53-34.78,32.87-14.52,7.35-30.67,11.02-48.45,11.02s-33.49-3.67-47.78-11.02c-14.3-7.34-25.61-18.3-33.93-32.87-8.33-14.57-12.49-32.39-12.49-53.48V117.24h47.27Z"></path><path d="M1619.68,365.28h-47.27l-107.03-170.22v170.22h-47.27V116.88h47.27l107.03,170.58V116.88h47.27v248.4Z"></path><path d="M1815.85,318.02h-93.87l-15.53,47.26h-49.64l84.75-248.4h55.03l84.75,248.4h-49.97l-15.53-47.26ZM1803.02,278.22l-34.1-103.77-34.1,103.77h68.21Z"></path><path d="M2175.1,117.24v248.04h-47.27v-161.34l-63.14,161.34h-35.79l-63.48-161.34v161.34h-47.27V117.24h53.68l74.96,184.43,74.96-184.43h53.35Z"></path><path d="M2274.02,117.24v248.04h-47.27V117.24h47.27Z"></path></g></g></g></g></svg>