<?xml version="1.0" encoding="UTF-8"?>
<svg id="Layer_2" xmlns="http://www.w3.org/2000/svg" viewBox="0 0 513.54 430.54">
  <defs>
    <style>
      .cls-1 {
        fill: #252c35;
      }

      .cls-2 {
        fill: #4a9ed8;
      }
    </style>
  </defs>
  <g id="Layer_1-2" data-name="Layer_1">
    <g>
      <path class="cls-1" d="M389.15,39.38c23.8,24.65,37.37,53.82,38.57,88.36.95,27.22-4.65,52.82-18.97,76.32-16.48,27.04-40.16,45.46-69.12,57.16-18.91,7.64-38.87,9.4-59.15,7.79-21.3-1.69-40.89-8.64-59.47-18.8-6.53-3.57-11.32-2.87-16.64,2.43-3,2.99-5.99,5.99-9.06,8.91-1.29,1.22-1.58,2.31-.7,3.96,2.72,5.08,1.14,9.58-2.32,13.61-1.7,1.98-3.69,3.69-5.81,5.27-2.69,2-5.6,2.81-8.81,2.17-2.05-.4-3.4.21-4.77,1.7-2.31,2.53-4.8,4.89-7.26,7.28-1.12,1.08-1.83,2.18-.81,3.69,1.03,1.53.53,2.87-.51,4.13-.58.7-1.16,1.4-1.8,2.04-10.4,10.42-20.58,21.07-30.16,32.22-12.35,14.37-25.51,27.99-37.81,42.4-7.91,9.27-16.52,17.94-24.8,26.89-4.72,5.1-9.01,10.64-14.77,14.68-15.5,10.86-30.74,10.58-44.08-2.19-11.74-11.24-14.95-28.19-4.8-44.29,5.03-7.98,12.46-13.34,19.8-18.83,6.8-5.08,12.87-10.99,19.09-16.72,11.48-10.59,23.07-21.05,35.13-30.98,14.47-11.91,28.93-23.83,41.89-37.44,1.46-1.53,2.99-2.98,4.77-4.18,1.52-1.03,2.95-1.73,4.72-.65,1.54.94,2.45-.2,3.33-1.15,3-3.24,5.56-6.94,9.56-9.13.85-.47.96-1.23.68-2.09-1.24-3.78.33-6.9,2.34-9.9,1.12-1.68,2.36-3.26,3.8-4.69,4.87-4.83,8.58-5.42,14.58-2.08,1.43.8,2.48.68,3.41-.55,3.67-4.87,8.11-8.95,12.8-12.79,1.4-1.15,1.57-2.52,1.41-4.3-.45-4.77-2.33-8.94-4.8-12.9-12.45-19.96-18.54-41.75-19.48-65.23-.96-24.19,3.42-47.26,14.3-68.82,17.45-34.6,45.45-56.63,82.54-67.29,20.39-5.86,41.12-6.95,61.97-3.23,20.97,3.74,39.98,12.22,57.08,24.94,5.01,3.73,9.86,7.66,14.16,12.28ZM216.73,56.92c-41.27,42.17-43.77,110.46-2.26,153.65,43.6,45.37,112.94,43.45,157.23-.15,39.75-39.12,43.03-108.21-.13-152.17-41.4-42.17-113.48-43.25-154.84-1.33ZM53.49,350.62c-.85,2.07-2.03,3.3-3.24,4.5-7.63,7.63-15.26,15.25-22.89,22.88-2.34,2.34-4.15,4.94-4.27,8.41-.03.85-.62,1.88.58,2.37,1.34.55,1.77-.59,2.25-1.44,2.28-3.97,5.29-7.34,8.49-10.58,21.04-21.3,42.84-41.79,64.76-62.17,9.45-8.78,18.6-17.88,27.87-26.85,1.55-1.5,3.28-2.69,5.38-3.21.83-.21,1.93-.69,2.07.8.16,1.65,1.22,1.35,2.19,1.06,1.26-.37,2.14.15,2.97.97,4.01,3.96,8,7.93,12.05,11.85.77.74,1.49,2.56,2.77,1.44,1.16-1.01-.34-2.11-.92-3.09-.1-.17-.26-.3-.39-.46-6.11-6.96-12.27-13.86-19.54-19.68-3.34-2.68-3.99-2.87-7.1.09-3.87,3.69-7.6,7.51-11.38,11.29-14.28,14.28-31.01,25.69-45.85,39.34-14.75,13.57-29.83,26.78-44.1,40.88-2.74,2.71-4.41,5.97-5.9,9.39-.68,1.57-1.03,3.27-1.04,5,0,.8.03,1.77.88,2.1,1.13.44,1.23-.74,1.62-1.36,2.63-4.2,5.66-8.04,9.26-11.49,6.32-6.08,12.47-12.33,18.69-18.52,1.29-1.28,2.65-2.45,4.8-3.52ZM172.31,162.2c.18-.56.3-.75.29-.93-.05-.7-.1-1.41-.22-2.1-3.75-22.94-1.91-45.4,5.93-67.31,7.68-21.46,19.94-39.88,38.01-53.87,18.76-14.52,40.34-22.48,63.9-25.17,12.22-1.4,24.26-.78,36.38,1.25,17.35,2.9,32.92,9.89,47.48,19.33,9.26,6,16.88,13.97,24.54,21.84.95.98,2.05,3.09,3.49,1.89,1.01-.84-.58-2.51-1.41-3.6-6.69-8.84-15.04-15.86-23.97-22.36-13.33-9.69-27.92-16.44-43.98-19.9-19.91-4.29-39.81-3.79-59.68.67-21.04,4.72-39.55,14.46-55.51,28.75-13.97,12.5-23.83,28.12-30.83,45.41-6.98,17.22-9.92,35.24-9.2,53.84.22,5.86.66,11.67,1.8,17.41.36,1.83.74,3.77,2.96,4.84ZM207.46,220.15c8.58,8.49,16.52,14.7,25.38,19.56,17.4,9.55,36,14.9,55.95,15.52,17.62.55,34.61-2.66,50.76-9.38,19.99-8.32,36.66-21.19,49.88-38.57,13.36-17.56,21.33-37.11,23.39-59.05.14-1.51,1.29-4.21-.75-4.47-2.66-.35-1.72,2.7-1.91,4.17-2.23,16.92-7.52,32.75-16.34,47.41-6.73,11.18-15.35,20.66-25.36,28.98-12.35,10.26-26.2,17.8-41.55,22.29-15.42,4.52-31.17,5.96-47.27,4.19-14.94-1.65-29.09-5.87-42.27-12.77-15.39-8.06-28.99-18.56-39.25-32.89-.51-.72-1.18-2.13-2.28-1.24-.78.63.21,1.66.69,2.38,3.63,5.46,7.56,10.69,10.94,13.87ZM173.9,254.38c-2.54-2.42-4.91-5.01-7.75-7.13-5.35-3.98-11.25-2.25-13.27,4.12-.79,2.48,1.02,4.01,2.66,5.25,1.73,1.3,2.1-.68,2.79-1.63.96-1.33,2.08-1.81,3.62-.99,2.23,1.18,4.45,2.35,7.14,1.6.8-.22,1.28.41,1.69,1,2.18,3.1,5.42,5.05,8.18,7.51.64.57,1.47,1.48,2.34.74,1-.86.19-1.81-.37-2.65-1.96-2.96-4.63-5.27-7.04-7.82ZM187.49,237.52c1.71-1.71,3.46-3.39,5.11-5.15.56-.6,2.41-1.12.97-2.16-1.4-1.02-2.46-4.04-4.88-2.13-4.98,3.94-9.54,8.38-13.83,13.06-1.77,1.93-.19,3.31,1.21,4.53,1.36,1.17,2.78,1.77,4.05-.16,2.01-3.07,4.86-5.37,7.36-7.99ZM159.05,275.8c-1.64-4.1-4.43-7.34-7.61-10.12-3.63-3.18-4.26-2.98-7.78.42-1.23,1.19-2.41,2.44-3.62,3.65-1.05,1.05-1.54,2.09-.21,3.34,1.24,1.17,2.43,1.83,3.86.3.76-.81,1.67-1.49,2.32-2.37,1.2-1.64,2.33-1.5,4.11-.68,3.2,1.47,5.81,3.79,8.93,5.47Z"/>
      <path class="cls-1" d="M384.98,104.14l-63.64-5.96-25.33-58.69c-1.24-2.87-5.3-2.87-6.54,0l-25.33,58.69-63.64,5.96c-3.11.29-4.36,4.16-2.02,6.22l47.99,42.23-14,62.37c-.68,3.05,2.6,5.43,5.29,3.84l54.99-32.59,54.99,32.59c2.69,1.59,5.97-.8,5.29-3.84l-14-62.37,47.99-42.23c2.34-2.06,1.09-5.93-2.02-6.22ZM209.91,109.73l.26-1.39c17.39,0,34.79.01,52.18-.02,1.57,0,2.65.61,3.64,1.74,3.31,3.79,6.75,7.47,9.99,11.31,3.68,4.38,7.73,8.38,11.97,12.41-26.25-7.43-52.6-14.26-78.03-24.04ZM240.09,206.75c-.48-1.76-.1-2.91.22-4.07,4.15-14.84,8.33-29.67,12.36-44.54.63-2.33,1.6-3.82,3.89-4.85,11.54-5.16,23.01-10.48,35.38-15.11-18.68,22.07-34.13,45.93-51.85,68.56ZM292.68,135.76c-3.01-9.4-9.38-16.67-15.75-23.71-5.15-5.69-6.2-10.65-2.65-17.76,6.02-12.05,10.98-24.62,16.4-36.97.36-.82.77-1.61,1.69-2.4v3.39c0,23.18-.02,46.35.03,69.53,0,2.23.12,4.48.56,6.67.17.84.58,1.51,1.82,1.51,0,0,0,0,.01,0,0,0,.02,0,.02,0,.06-.07.12-.14.18-.21,4.92-5.86,11.12-8.51,18.83-9.1,9.21-.71,17.93-4.38,27.06-5.9.57-.1,1.14-.22,1.75-.16-15.7,5.92-31.64,11.02-47.82,15.37,0,0,0,.01-.01.02,0,0-.01,0-.02,0-.78.63-1.65,1.12-2.08-.25ZM343.81,205.47c-8.58-2.9-16.05-7.75-24.31-11.81q2.94.1,4.58,1.13c1.28.81,2.47,1.88,3.86,2.33.91.3,2.03,3.23,3.26.14.14-.35,1.17.5,1.68.95,1.74,1.52,3.45,3.07,5.9,4.09-12.41-16.95-25.08-33.33-39.91-47.94,6.71,9.86,14.79,18.69,21.74,28.4-7.51-8.56-15.56-16.57-23.35-24.87,4.09,8.54,12.18,14.34,15.51,23.42-4.11-6.71-9.68-12.17-15-18.49-.64,2.21.31,3.35,1.24,4.46,4.37,5.26,8.1,10.97,11.66,16.84-4.73-4.59-7.23-11.14-13.22-15.63.41,3.21,2.71,4.47,3.55,6.81-1.66-.65-2.22-2.46-4.32-3.1,3.78,7.38,10.07,11.81,15.14,17.49-5.3-3.56-10.61-7.1-15.88-10.7-1.03-.7-1.06-1.91-1.02-3.03.3-8.66-.37-17.33.34-25.99.25-3.08-.62-6.18-.09-10.02,16.23,22.3,31.27,44.75,48.65,65.53Z"/>
      <rect class="cls-2" x="174.08" y="331.1" width="45.74" height="99.44"/>
      <rect class="cls-2" x="247.51" y="290.96" width="45.74" height="139.58"/>
      <rect class="cls-2" x="320.94" y="314.79" width="45.74" height="114.59"/>
      <rect class="cls-2" x="394.37" y="255.13" width="45.74" height="174.25"/>
      <rect class="cls-2" x="467.8" y="181.12" width="45.74" height="248.26"/>
    </g>
  </g>
</svg>